<?xml version="1.0" standalone="no"?>
<!DOCTYPE svg PUBLIC "-//W3C//DTD SVG 20010904//EN"
 "http://www.w3.org/TR/2001/REC-SVG-20010904/DTD/svg10.dtd">
<svg version="1.0" xmlns="http://www.w3.org/2000/svg"
 width="873.000000pt" height="873.000000pt" viewBox="0 0 873.000000 873.000000"
 preserveAspectRatio="xMidYMid meet">
<metadata>
Created by potrace 1.11, written by Peter Selinger 2001-2013
</metadata>
<g transform="translate(0.000000,873.000000) scale(0.100000,-0.100000)"
fill="#000000" stroke="none">
<path d="M4218 8625 c-2 -1 -55 -5 -118 -9 -63 -3 -116 -11 -118 -16 -2 -6
-17 -10 -33 -10 -44 0 -283 -41 -289 -49 -3 -4 -44 -16 -92 -26 -49 -10 -88
-21 -88 -25 0 -4 -30 -15 -67 -24 -37 -10 -70 -21 -73 -25 -3 -4 -38 -18 -77
-30 -40 -12 -73 -26 -73 -31 0 -6 -7 -10 -15 -10 -17 0 -89 -32 -93 -42 -2 -3
-24 -12 -49 -20 -25 -7 -48 -19 -50 -25 -3 -7 -9 -13 -14 -13 -13 0 -103 -42
-109 -52 -3 -4 -22 -14 -43 -23 -20 -8 -37 -19 -37 -24 0 -5 -13 -13 -28 -19
-16 -5 -35 -16 -43 -23 -19 -18 -49 -37 -76 -49 -13 -5 -23 -14 -23 -20 0 -5
-6 -10 -13 -10 -7 0 -29 -13 -47 -30 -18 -16 -36 -30 -39 -30 -3 0 -22 -14
-41 -30 -19 -16 -38 -30 -43 -30 -4 0 -27 -20 -51 -45 -25 -25 -49 -45 -55
-45 -5 0 -19 -12 -31 -27 -11 -15 -34 -35 -50 -44 -16 -10 -50 -41 -77 -70
-26 -28 -61 -64 -77 -78 -54 -49 -116 -114 -116 -122 0 -4 -25 -34 -55 -66
-31 -32 -64 -67 -75 -79 -11 -12 -20 -26 -20 -32 0 -6 -11 -19 -25 -30 -14
-11 -25 -25 -25 -30 0 -6 -10 -19 -22 -29 -25 -21 -46 -49 -54 -75 -4 -10 -10
-18 -15 -18 -4 0 -18 -18 -30 -40 -13 -22 -25 -40 -29 -40 -3 0 -14 -17 -25
-37 -11 -21 -28 -47 -37 -57 -10 -11 -18 -25 -18 -32 0 -7 -6 -17 -13 -21 -6
-4 -22 -29 -35 -55 -13 -27 -27 -48 -31 -48 -5 0 -16 -20 -25 -45 -10 -25 -21
-45 -26 -45 -5 0 -16 -20 -26 -45 -9 -25 -20 -45 -23 -45 -4 0 -18 -29 -31
-65 -13 -36 -27 -65 -31 -65 -3 0 -14 -21 -24 -47 -10 -27 -21 -50 -24 -53
-12 -10 -29 -47 -36 -80 -4 -19 -11 -38 -16 -41 -11 -6 -49 -112 -49 -134 0
-8 -4 -15 -10 -15 -5 0 -17 -27 -27 -60 -9 -33 -20 -60 -25 -60 -4 0 -8 -8 -8
-19 0 -23 -31 -124 -41 -131 -3 -3 -8 -16 -11 -30 -3 -14 -14 -61 -23 -105
-10 -44 -22 -83 -27 -86 -5 -3 -10 -27 -11 -53 -1 -25 -5 -46 -8 -46 -4 0 -9
-22 -13 -50 -4 -27 -10 -50 -15 -50 -4 0 -16 -62 -26 -137 -11 -76 -22 -140
-26 -143 -6 -5 -15 -72 -25 -195 -3 -38 -8 -86 -11 -105 -9 -62 -11 -792 -2
-900 4 -58 10 -130 13 -160 10 -124 19 -195 26 -200 4 -3 15 -63 24 -135 10
-71 21 -132 25 -135 4 -3 15 -50 25 -105 11 -55 22 -102 26 -105 4 -3 12 -32
19 -65 7 -33 18 -82 24 -110 5 -27 14 -52 18 -55 5 -3 16 -37 26 -75 10 -39
20 -72 23 -75 3 -3 14 -31 23 -62 10 -32 22 -58 26 -58 4 0 13 -25 20 -55 7
-30 17 -57 22 -60 5 -4 9 -15 9 -26 0 -10 4 -19 9 -19 4 0 16 -25 26 -55 9
-30 20 -55 24 -55 3 0 14 -22 24 -50 10 -27 22 -50 27 -50 6 0 10 -8 10 -18 0
-10 4 -22 8 -27 5 -6 15 -29 22 -52 7 -24 17 -43 22 -43 5 0 16 -17 25 -38 8
-20 18 -39 22 -42 3 -3 15 -23 26 -45 11 -22 22 -42 26 -45 3 -3 16 -27 30
-55 13 -27 30 -54 36 -58 7 -4 13 -14 13 -21 0 -7 10 -24 23 -37 13 -13 29
-39 36 -56 8 -18 17 -33 22 -33 5 0 17 -17 28 -39 11 -21 27 -41 36 -44 8 -4
15 -13 15 -21 0 -8 8 -21 18 -28 17 -13 36 -39 49 -68 4 -8 17 -23 30 -33 13
-10 23 -25 23 -32 0 -8 9 -19 20 -25 11 -6 20 -16 20 -23 0 -7 20 -32 45 -55
25 -23 45 -44 45 -47 0 -8 34 -46 89 -99 29 -28 65 -64 80 -80 51 -55 114
-116 122 -116 4 0 30 -21 57 -47 68 -66 102 -95 135 -116 16 -10 38 -26 50
-37 11 -11 24 -20 27 -20 4 0 22 -13 40 -30 18 -16 40 -30 47 -30 7 0 13 -4
13 -9 0 -5 20 -20 45 -32 25 -12 45 -26 45 -29 0 -4 18 -15 40 -25 22 -10 40
-22 40 -27 0 -4 18 -15 40 -24 22 -9 40 -20 40 -24 0 -5 10 -12 23 -15 28 -8
90 -38 97 -47 3 -3 25 -14 50 -24 25 -10 50 -23 56 -29 6 -6 31 -17 55 -25 24
-8 50 -20 57 -27 7 -7 20 -13 27 -13 21 0 109 -31 115 -41 3 -4 34 -15 69 -23
35 -8 67 -19 70 -24 3 -5 47 -17 96 -27 50 -10 92 -22 95 -26 6 -8 259 -49
305 -49 18 0 35 -4 37 -10 11 -31 768 -28 768 4 0 6 5 4 10 -4 7 -11 12 -12
18 -3 4 6 36 15 72 18 36 4 92 13 125 21 33 8 75 14 93 14 17 0 32 4 32 8 0 4
38 16 85 27 47 10 85 21 85 25 0 3 33 15 73 25 39 10 74 21 77 25 3 4 39 18
80 31 41 13 80 28 87 35 7 6 32 18 57 25 26 7 46 16 46 20 0 3 21 14 48 24 26
10 50 23 54 30 4 7 29 20 55 30 26 10 54 25 61 32 7 7 19 13 26 13 7 0 21 8
32 18 27 23 55 41 77 48 9 4 17 10 17 14 0 4 21 18 48 31 26 13 53 32 60 42 7
9 18 17 24 17 9 0 20 8 77 60 9 9 33 26 54 39 20 12 37 26 37 30 0 4 13 14 29
24 17 10 52 40 79 67 28 28 55 50 61 50 6 0 17 11 23 25 6 14 15 25 20 25 10
0 138 128 138 138 0 4 19 26 43 48 24 22 54 56 67 75 14 19 35 42 47 52 13 10
23 22 23 27 0 5 10 20 23 33 12 14 33 39 47 56 14 17 32 40 41 50 9 10 22 32
30 49 8 18 19 32 25 32 5 0 18 16 27 35 9 19 21 35 26 35 5 0 14 13 21 29 6
16 19 37 28 48 9 10 26 34 36 53 11 19 25 40 31 45 7 6 18 26 25 45 8 19 17
37 21 40 12 9 49 80 49 95 0 8 5 15 11 15 5 0 17 17 26 38 8 20 18 39 22 42
11 9 31 49 31 64 0 8 6 21 13 28 15 15 57 114 57 134 0 8 4 14 9 14 6 0 18 25
27 55 10 30 21 55 25 55 4 0 15 25 24 55 10 30 21 55 25 55 4 0 10 12 13 27
11 54 37 137 45 142 5 3 17 38 27 76 10 39 21 72 24 75 4 3 15 41 26 85 10 44
22 82 26 85 3 3 17 61 29 130 13 69 26 127 30 130 4 3 16 66 26 140 10 74 20
137 24 140 5 4 27 174 29 225 3 99 15 225 22 225 14 0 11 38 -3 43 -10 4 -10
6 0 6 9 1 12 48 12 200 0 150 -3 201 -12 204 -10 4 -10 6 0 6 8 1 12 25 12 85
0 58 -4 86 -12 89 -10 4 -9 8 2 17 11 9 12 13 3 17 -8 3 -13 22 -13 46 0 71
-32 372 -40 377 -4 3 -10 30 -14 60 -14 119 -30 210 -37 210 -4 0 -9 15 -11
33 -14 92 -41 233 -48 237 -9 7 -40 121 -40 148 0 12 -4 22 -8 22 -4 0 -16 32
-27 70 -11 39 -23 70 -27 70 -4 0 -8 7 -8 16 0 19 -42 147 -50 154 -4 3 -14
31 -24 63 -10 31 -21 57 -26 57 -4 0 -13 21 -20 46 -7 25 -18 51 -24 57 -7 7
-22 41 -35 77 -13 36 -29 69 -35 75 -7 5 -18 28 -25 49 -8 22 -22 49 -32 60
-11 11 -19 25 -19 32 0 7 -6 19 -12 26 -7 7 -24 36 -37 63 -14 28 -27 52 -30
55 -4 3 -15 22 -26 43 -11 20 -23 37 -26 37 -4 0 -14 16 -23 35 -9 19 -21 35
-25 35 -5 0 -14 12 -20 28 -11 28 -31 63 -42 72 -3 3 -14 20 -24 38 -11 17
-23 32 -27 32 -4 0 -8 5 -8 11 0 7 -11 22 -26 35 -14 13 -31 39 -39 58 -8 18
-26 41 -40 50 -14 9 -25 22 -25 28 0 6 -9 20 -20 32 -41 42 -90 101 -90 109 0
4 -7 7 -15 7 -8 0 -15 6 -15 14 0 8 -26 40 -58 72 -33 33 -64 69 -71 82 -6 12
-18 22 -25 22 -7 0 -18 11 -24 25 -6 14 -17 25 -24 25 -7 0 -35 22 -61 50 -26
27 -56 54 -67 60 -11 6 -20 16 -20 23 0 8 -16 19 -35 27 -19 8 -35 18 -35 23
0 10 -41 46 -54 47 -8 0 -17 8 -77 65 -15 14 -31 25 -37 25 -6 0 -17 8 -24 18
-7 10 -27 24 -44 31 -18 7 -40 20 -51 29 -10 9 -34 26 -53 36 -19 11 -41 26
-48 33 -7 7 -19 13 -26 13 -7 0 -21 8 -32 18 -28 24 -79 52 -98 52 -8 0 -19 6
-23 14 -4 7 -30 21 -56 30 -27 9 -55 23 -63 31 -8 8 -33 19 -54 25 -22 6 -40
14 -40 18 0 4 -34 18 -75 31 -41 12 -75 27 -75 31 0 4 -12 10 -27 13 -59 11
-118 28 -123 36 -3 4 -41 16 -85 26 -44 10 -82 21 -85 25 -6 9 -245 50 -288
50 -17 0 -32 4 -34 9 -5 14 -277 32 -447 30 -83 -1 -152 -3 -153 -4z m592
-135 c52 -7 97 -16 100 -20 3 -4 52 -14 109 -23 57 -9 107 -20 110 -25 3 -5
22 -13 41 -16 72 -14 160 -39 160 -46 0 -4 25 -13 56 -20 31 -8 61 -19 68 -25
6 -5 44 -21 84 -34 39 -13 72 -26 72 -30 0 -4 24 -15 53 -26 28 -10 54 -21 57
-24 3 -4 23 -15 45 -26 22 -11 42 -23 45 -26 9 -10 73 -39 86 -39 7 0 18 -9
24 -20 6 -11 17 -20 25 -20 8 0 23 -8 33 -17 10 -10 34 -26 55 -35 20 -10 37
-22 37 -26 0 -5 21 -20 48 -33 26 -13 53 -32 60 -41 7 -10 19 -18 26 -18 8 0
21 -11 30 -25 9 -14 21 -25 27 -25 6 0 24 -12 39 -27 15 -16 45 -41 66 -58 20
-16 62 -54 93 -82 31 -29 62 -53 68 -53 7 0 13 -7 13 -15 0 -8 9 -19 20 -25
11 -6 20 -17 20 -25 0 -8 7 -15 15 -15 8 0 15 -4 15 -9 0 -5 16 -24 36 -43 54
-49 84 -82 84 -91 0 -4 20 -29 45 -55 83 -86 100 -107 115 -136 8 -17 24 -39
35 -51 11 -12 29 -34 40 -50 11 -16 27 -37 36 -46 9 -9 27 -36 40 -60 13 -24
29 -47 35 -51 6 -4 17 -21 24 -37 6 -16 18 -32 26 -35 8 -3 14 -12 14 -21 0
-8 8 -23 18 -33 10 -10 28 -39 40 -65 12 -26 26 -47 30 -47 4 0 16 -22 26 -49
9 -27 23 -52 30 -54 8 -3 17 -22 20 -42 4 -20 13 -38 21 -41 7 -3 23 -33 36
-67 12 -34 26 -64 29 -67 4 -3 15 -26 25 -52 10 -27 22 -48 26 -48 5 0 9 -9 9
-19 0 -11 4 -22 9 -25 5 -3 12 -22 15 -41 4 -19 10 -35 15 -35 4 0 18 -36 31
-80 13 -44 27 -80 32 -80 4 0 8 -6 8 -14 0 -17 32 -119 40 -126 3 -3 14 -41
25 -85 10 -44 22 -82 26 -85 7 -5 38 -137 47 -200 2 -19 8 -37 12 -40 4 -3 16
-54 26 -115 10 -60 21 -112 25 -115 8 -6 35 -234 45 -380 4 -52 12 -98 17
-102 15 -9 15 -777 1 -786 -6 -4 -14 -50 -18 -102 -10 -136 -38 -364 -46 -370
-4 -3 -14 -52 -24 -110 -9 -58 -21 -107 -26 -108 -6 -2 -10 -16 -10 -30 0 -34
-42 -225 -51 -232 -4 -3 -15 -38 -24 -77 -10 -40 -21 -73 -25 -73 -4 0 -16
-33 -25 -72 -10 -40 -21 -75 -25 -78 -5 -3 -18 -39 -31 -80 -12 -41 -25 -77
-29 -80 -4 -3 -15 -29 -24 -58 -10 -28 -21 -52 -25 -52 -4 0 -15 -26 -25 -57
-10 -32 -23 -61 -28 -64 -6 -4 -19 -31 -29 -60 -10 -29 -22 -55 -27 -58 -4 -3
-16 -25 -27 -48 -11 -24 -23 -43 -26 -43 -4 0 -15 -23 -25 -50 -10 -28 -22
-50 -26 -50 -4 0 -18 -21 -30 -48 -12 -26 -25 -49 -29 -52 -3 -3 -14 -20 -23
-37 -9 -18 -21 -33 -26 -33 -5 0 -12 -11 -16 -25 -3 -14 -14 -31 -23 -38 -9
-6 -25 -30 -36 -52 -11 -22 -29 -50 -40 -62 -37 -41 -51 -59 -58 -74 -14 -29
-33 -54 -54 -72 -13 -10 -23 -25 -23 -32 0 -8 -9 -19 -20 -25 -11 -6 -20 -16
-20 -22 0 -6 -20 -31 -45 -55 -25 -23 -45 -46 -45 -51 0 -10 -88 -102 -98
-102 -4 0 -16 -16 -26 -35 -11 -19 -23 -35 -28 -35 -6 0 -29 -19 -53 -42 -24
-24 -68 -67 -99 -96 -31 -30 -56 -57 -56 -60 0 -4 -18 -15 -40 -24 -21 -10
-44 -27 -50 -38 -6 -11 -17 -20 -25 -20 -8 0 -20 -9 -27 -21 -7 -11 -29 -28
-48 -37 -19 -9 -41 -24 -48 -34 -7 -10 -19 -18 -26 -18 -7 0 -24 -10 -37 -23
-13 -12 -37 -29 -54 -37 -16 -8 -39 -23 -49 -32 -11 -10 -26 -18 -33 -18 -8 0
-16 -6 -19 -14 -3 -8 -30 -24 -60 -36 -30 -12 -54 -25 -54 -29 0 -3 -20 -14
-45 -24 -25 -11 -45 -22 -45 -26 0 -4 -26 -15 -57 -26 -32 -11 -62 -25 -66
-32 -4 -7 -14 -13 -22 -13 -21 0 -109 -31 -115 -40 -3 -5 -32 -15 -64 -24 -33
-8 -62 -19 -65 -24 -3 -5 -42 -17 -86 -26 -43 -9 -82 -20 -85 -25 -3 -5 -63
-19 -135 -32 -71 -13 -132 -26 -135 -30 -11 -15 -299 -34 -500 -33 -206 0
-480 20 -480 34 0 4 -37 12 -82 19 -105 15 -192 33 -198 41 -3 3 -40 14 -82
24 -43 10 -78 21 -78 26 0 5 -15 11 -32 15 -41 8 -101 28 -108 35 -3 3 -39 17
-80 30 -41 13 -78 29 -82 35 -4 6 -26 18 -50 25 -24 8 -49 20 -56 27 -7 7 -19
13 -26 13 -7 0 -21 8 -32 18 -11 10 -41 27 -67 37 -26 10 -51 23 -55 29 -4 6
-26 20 -49 30 -24 11 -43 23 -43 27 0 4 -16 16 -35 25 -19 9 -35 19 -35 23 0
3 -20 17 -45 31 -25 14 -45 28 -45 32 0 5 -6 8 -13 8 -7 0 -23 10 -37 23 -14
13 -39 32 -55 43 -38 24 -59 41 -99 81 -18 18 -36 33 -41 33 -4 0 -27 20 -51
45 -23 25 -46 45 -51 45 -11 0 -43 37 -43 50 0 6 -5 10 -11 10 -15 0 -191 183
-267 277 -12 15 -36 44 -52 63 -17 19 -30 37 -30 41 0 3 -12 20 -27 37 -43 47
-52 59 -74 97 -12 19 -24 35 -28 35 -4 0 -16 18 -27 40 -10 22 -22 40 -26 40
-4 0 -15 15 -24 33 -9 17 -20 34 -23 37 -10 8 -31 43 -44 72 -6 16 -14 28 -18
28 -3 0 -14 19 -25 43 -10 23 -27 51 -36 61 -10 11 -18 25 -18 32 0 7 -6 19
-13 26 -7 7 -23 39 -36 70 -13 32 -27 58 -31 58 -4 0 -16 23 -26 50 -10 28
-21 50 -24 50 -4 0 -15 25 -25 55 -11 30 -22 55 -25 55 -4 0 -17 33 -30 73
-14 39 -27 74 -31 77 -4 3 -14 29 -23 59 -9 30 -20 57 -24 60 -9 7 -42 111
-42 134 0 10 -4 17 -10 17 -5 0 -10 11 -10 24 0 14 -4 28 -10 31 -5 3 -10 17
-10 30 0 32 -22 115 -31 115 -3 0 -14 47 -24 105 -10 58 -21 105 -25 105 -4 0
-15 51 -25 113 -9 61 -20 114 -24 117 -10 7 -28 151 -43 335 -6 83 -16 153
-22 157 -7 4 -10 142 -10 388 1 319 3 383 15 391 12 8 12 10 -1 19 -8 5 -10
10 -4 10 7 0 14 34 18 88 11 144 38 347 46 352 4 3 10 28 14 55 13 102 30 190
36 195 4 3 14 43 23 89 9 47 21 87 25 90 5 3 17 46 28 95 10 49 24 94 30 100
6 6 13 23 17 36 3 14 11 46 17 73 6 26 15 47 20 47 4 0 13 23 20 50 7 28 17
56 24 63 6 7 22 45 35 85 14 39 28 72 33 72 4 0 8 7 8 15 0 18 31 86 47 103 7
7 13 20 13 28 0 14 19 54 31 64 9 8 49 95 49 107 0 6 6 13 13 16 6 2 18 22 26
43 7 21 22 47 33 58 10 11 21 31 24 43 4 13 10 23 14 23 4 0 18 23 31 50 13
28 27 50 32 50 4 0 15 17 25 37 9 20 25 46 34 57 58 68 68 82 68 93 0 6 8 18
18 25 9 7 23 25 31 41 8 15 20 27 27 27 6 0 14 8 18 18 7 20 24 47 51 77 11
13 43 49 70 80 94 107 280 295 293 295 6 0 12 6 12 13 0 8 12 20 26 27 14 8
30 22 35 32 5 10 15 18 21 18 6 0 26 15 44 33 40 39 61 57 96 79 14 10 38 29
54 43 15 14 33 25 39 25 7 0 15 7 18 15 4 8 21 21 40 28 18 8 46 26 62 41 15
14 34 26 40 26 7 0 15 7 19 15 3 8 14 15 25 15 11 0 26 8 33 18 7 10 35 27 61
37 26 10 51 23 55 30 4 7 28 20 55 30 26 10 47 21 47 25 0 4 25 15 55 25 30
11 55 22 55 26 0 4 30 17 67 29 38 12 70 25 73 28 7 10 73 32 92 32 9 0 23 6
30 13 7 8 58 24 113 37 55 13 102 27 105 31 3 5 53 16 110 25 58 10 107 21
110 24 3 4 64 14 135 23 157 18 648 16 795 -3z"/>
<path d="M4115 8397 c-60 -5 -112 -12 -115 -16 -3 -4 -61 -15 -130 -25 -69 -9
-126 -21 -128 -26 -2 -6 -11 -10 -20 -10 -24 0 -146 -32 -152 -39 -5 -7 -29
-13 -147 -42 -24 -6 -43 -14 -43 -19 0 -4 -26 -16 -57 -26 -32 -10 -60 -21
-63 -25 -3 -4 -25 -15 -50 -25 -25 -10 -47 -20 -50 -24 -3 -3 -31 -17 -62 -29
-32 -13 -58 -27 -58 -31 0 -4 -21 -15 -47 -25 -27 -10 -54 -26 -60 -36 -7 -9
-24 -20 -38 -23 -14 -4 -25 -11 -25 -16 0 -5 -22 -19 -49 -31 -27 -11 -52 -27
-55 -35 -3 -8 -11 -14 -18 -14 -7 0 -31 -16 -53 -35 -22 -19 -43 -35 -47 -35
-5 0 -17 -8 -28 -17 -11 -10 -34 -29 -51 -43 -18 -14 -44 -37 -60 -52 -15 -16
-32 -28 -37 -28 -6 0 -17 -8 -24 -18 -7 -10 -28 -29 -47 -43 -19 -13 -49 -40
-68 -59 -18 -19 -52 -54 -75 -77 -23 -24 -48 -43 -56 -43 -8 0 -12 -6 -8 -15
3 -8 2 -15 -3 -15 -11 0 -81 -72 -81 -83 0 -5 -11 -18 -25 -29 -14 -11 -25
-26 -25 -34 0 -8 -7 -14 -15 -14 -9 0 -20 -11 -24 -24 -5 -13 -17 -26 -25 -29
-9 -4 -16 -13 -16 -21 0 -8 -11 -23 -25 -34 -14 -11 -25 -25 -25 -30 0 -6 -10
-19 -22 -29 -13 -10 -31 -35 -40 -55 -10 -21 -22 -38 -26 -38 -5 0 -20 -21
-33 -47 -13 -27 -29 -51 -35 -55 -6 -4 -17 -21 -24 -38 -7 -16 -16 -30 -20
-30 -4 0 -13 -14 -20 -30 -7 -17 -18 -34 -24 -38 -7 -4 -23 -31 -36 -59 -14
-29 -28 -53 -31 -53 -3 0 -14 -21 -24 -47 -10 -27 -23 -51 -30 -55 -6 -4 -17
-25 -25 -48 -7 -22 -16 -40 -20 -40 -4 0 -18 -28 -31 -62 -13 -35 -28 -68 -34
-75 -7 -6 -18 -32 -25 -57 -7 -25 -16 -46 -20 -46 -4 0 -15 -26 -25 -57 -10
-32 -21 -60 -26 -63 -6 -4 -30 -79 -46 -147 -3 -13 -9 -23 -13 -23 -5 0 -16
-34 -25 -75 -9 -41 -21 -75 -25 -75 -5 0 -12 -21 -15 -47 -7 -50 -26 -114 -36
-123 -3 -3 -16 -66 -29 -140 -13 -74 -27 -137 -31 -140 -7 -5 -10 -23 -30
-202 -7 -60 -15 -108 -19 -108 -4 0 -11 -48 -15 -107 -4 -60 -9 -121 -11 -138
-2 -16 -5 -138 -8 -270 -4 -238 18 -714 34 -725 4 -3 10 -32 14 -65 16 -141
30 -235 37 -235 4 0 10 -24 14 -52 11 -94 38 -228 45 -228 4 0 15 -40 26 -90
10 -49 21 -90 24 -90 4 0 15 -34 25 -75 9 -41 21 -75 25 -75 4 0 18 -41 30
-90 12 -50 25 -90 29 -90 4 0 15 -25 25 -55 9 -30 21 -55 25 -55 5 0 17 -29
26 -65 10 -36 21 -65 25 -65 4 0 18 -27 31 -60 13 -33 27 -60 30 -60 4 0 15
-22 25 -50 10 -27 21 -50 25 -50 4 0 15 -23 25 -50 10 -28 22 -50 26 -50 5 0
17 -20 28 -45 11 -25 23 -45 27 -45 4 0 16 -20 26 -45 11 -25 23 -45 28 -45 5
0 9 -6 9 -13 0 -7 11 -24 25 -39 14 -15 34 -45 46 -67 11 -23 24 -41 28 -41 4
0 15 -16 24 -35 9 -19 21 -35 26 -35 5 0 12 -8 15 -18 4 -10 14 -27 24 -38 9
-10 28 -32 40 -49 58 -77 70 -91 115 -137 26 -27 47 -53 47 -57 0 -8 60 -71
116 -122 16 -15 46 -45 68 -68 21 -22 45 -41 52 -41 8 0 14 -7 14 -15 0 -8 4
-15 9 -15 4 0 23 -16 42 -35 19 -19 38 -35 42 -35 5 0 22 -12 37 -27 65 -63
76 -73 87 -73 7 0 18 -8 25 -17 15 -20 44 -41 71 -49 9 -4 17 -10 17 -15 0 -5
16 -17 35 -26 19 -9 35 -21 35 -25 0 -5 20 -18 45 -29 25 -11 45 -24 45 -28 0
-5 17 -17 38 -26 20 -10 39 -21 42 -24 7 -9 76 -41 88 -41 5 0 12 -6 15 -13 2
-6 28 -20 56 -31 28 -10 51 -22 51 -27 0 -5 9 -9 19 -9 11 0 22 -4 26 -9 3 -5
19 -12 35 -16 17 -4 30 -10 30 -14 0 -5 29 -16 65 -26 36 -9 65 -21 65 -25 0
-4 38 -17 85 -29 47 -13 85 -26 85 -30 0 -3 46 -15 103 -26 56 -10 104 -22
107 -25 6 -8 122 -27 215 -36 39 -4 73 -12 77 -18 11 -17 650 -15 655 2 3 6
19 12 36 12 55 0 252 32 255 41 2 5 13 9 24 9 27 0 162 32 168 40 3 4 46 17
95 30 50 13 92 26 95 30 3 3 31 14 63 24 31 10 57 21 57 25 0 4 24 15 53 26
28 10 54 21 57 25 3 3 32 17 65 30 33 13 69 32 79 42 11 10 25 18 32 18 7 0
19 6 26 13 7 6 31 21 53 32 22 11 45 27 52 36 6 8 30 21 52 29 23 7 41 18 41
25 0 6 12 18 27 26 15 8 35 21 45 29 9 8 27 23 40 32 13 10 35 27 50 38 14 11
29 20 32 20 5 0 28 21 106 95 25 23 55 48 68 54 12 6 22 18 22 26 0 8 4 15 10
15 12 0 160 148 160 161 0 5 7 9 15 9 8 0 15 5 15 11 0 6 14 24 31 41 17 17
38 43 47 57 9 14 25 32 34 39 10 7 18 18 18 24 0 5 12 23 28 38 62 65 72 76
72 87 0 7 8 18 18 25 10 7 26 30 35 51 10 20 22 37 28 37 5 0 17 16 26 35 9
19 20 35 24 35 4 0 18 21 31 47 13 27 29 52 35 56 7 4 13 14 13 21 0 7 8 21
18 32 10 10 24 35 31 54 8 19 19 40 26 45 16 14 45 71 45 90 0 8 9 23 20 32
11 10 20 22 20 28 0 16 24 65 32 65 3 0 14 24 24 53 9 28 20 54 24 57 12 9 40
72 40 91 0 10 6 24 14 32 8 7 22 41 31 75 10 34 21 62 25 62 4 0 15 27 24 59
9 33 20 61 24 63 4 2 18 47 32 101 13 53 27 97 30 97 3 0 14 38 25 85 10 47
21 85 25 85 4 0 15 48 25 108 10 59 22 109 26 112 8 6 49 281 49 329 0 17 4
31 8 31 5 0 15 73 23 163 26 298 11 1074 -21 1085 -6 2 -10 23 -10 47 0 23 -9
94 -20 156 -11 63 -20 129 -20 147 0 17 -4 32 -8 32 -5 0 -17 45 -27 100 -10
55 -22 100 -27 100 -4 0 -8 8 -8 17 0 24 -31 147 -39 153 -4 3 -15 40 -26 84
-10 43 -24 84 -29 90 -6 6 -19 42 -29 81 -10 38 -21 72 -26 75 -4 3 -16 33
-26 68 -10 34 -22 62 -26 62 -4 0 -15 25 -25 56 -9 31 -23 61 -30 68 -7 7 -20
35 -29 62 -9 27 -19 51 -23 54 -11 8 -42 71 -42 85 0 7 -6 15 -13 18 -6 2 -20
28 -31 56 -10 28 -22 51 -27 51 -5 0 -9 6 -9 14 0 7 -10 24 -22 37 -13 14 -32
44 -42 67 -10 23 -22 42 -25 42 -3 0 -17 20 -30 45 -13 25 -27 45 -32 45 -4 0
-13 16 -19 35 -6 19 -17 35 -25 35 -7 0 -18 14 -25 30 -7 17 -18 34 -24 38 -7
4 -20 24 -29 44 -10 21 -27 42 -37 48 -11 6 -20 17 -20 25 0 8 -11 22 -25 31
-14 9 -25 22 -25 30 0 7 -8 19 -18 26 -10 7 -29 29 -43 48 -13 19 -34 43 -46
53 -13 10 -23 25 -23 33 0 8 -7 14 -15 14 -8 0 -15 4 -15 9 0 18 -254 258
-290 275 -11 5 -20 13 -20 17 0 10 -43 53 -62 63 -30 15 -55 32 -78 54 -48 43
-86 69 -112 78 -10 4 -18 10 -18 15 0 5 -19 18 -42 30 -24 12 -45 25 -48 29
-3 3 -21 15 -40 26 -19 10 -37 22 -40 25 -3 4 -22 14 -42 22 -21 9 -38 20 -38
24 0 5 -29 20 -65 33 -36 13 -65 27 -65 31 0 4 -22 15 -50 25 -27 10 -50 21
-50 24 0 4 -28 15 -62 25 -35 11 -65 22 -68 26 -3 3 -39 17 -80 30 -41 12 -77
26 -80 29 -3 4 -45 15 -95 25 -49 10 -92 21 -95 25 -5 6 -92 22 -195 36 -27 4
-52 10 -55 14 -14 21 -496 33 -685 17z m623 -72 c39 -4 72 -11 72 -16 0 -5 15
-9 33 -9 42 0 261 -41 267 -50 3 -4 23 -10 45 -14 56 -10 115 -30 115 -37 0
-4 33 -15 72 -25 40 -9 78 -23 85 -30 7 -7 38 -20 68 -29 30 -8 55 -19 55 -23
0 -4 23 -16 50 -27 28 -11 50 -22 50 -26 0 -3 21 -14 47 -24 26 -10 55 -26 65
-35 9 -8 34 -22 55 -29 21 -8 44 -22 50 -31 7 -10 24 -21 38 -24 14 -4 25 -11
25 -16 0 -5 17 -17 38 -27 20 -9 43 -25 50 -35 7 -10 19 -18 25 -18 7 0 28
-13 47 -30 19 -16 42 -35 50 -42 9 -7 29 -22 45 -32 17 -11 38 -30 48 -43 10
-13 23 -23 29 -23 5 0 31 -22 57 -50 26 -27 52 -50 59 -50 7 0 12 -7 12 -15 0
-8 4 -15 9 -15 14 0 111 -95 111 -108 0 -7 7 -12 15 -12 8 0 15 -5 15 -11 0
-6 25 -35 55 -65 30 -30 55 -59 55 -64 0 -5 10 -17 23 -27 12 -10 29 -29 38
-43 9 -14 28 -38 43 -55 14 -16 26 -33 26 -36 0 -3 11 -19 25 -35 52 -62 69
-86 85 -121 5 -13 13 -23 18 -23 5 0 16 -16 25 -35 9 -19 20 -35 25 -35 4 0
16 -20 27 -45 11 -25 23 -45 27 -45 3 0 17 -21 29 -47 13 -27 29 -54 37 -62 8
-8 19 -27 24 -43 6 -15 13 -28 17 -28 4 0 14 -18 21 -41 8 -23 20 -43 27 -46
7 -3 13 -13 13 -22 0 -9 7 -25 15 -35 8 -11 15 -28 15 -37 0 -10 6 -24 13 -31
7 -7 22 -34 32 -61 10 -26 21 -47 24 -47 4 0 15 -29 26 -65 10 -36 21 -65 25
-65 3 0 17 -35 29 -77 13 -43 27 -80 32 -83 5 -3 16 -35 25 -70 9 -36 20 -67
24 -70 4 -3 15 -39 24 -80 10 -41 21 -77 25 -80 4 -3 18 -59 31 -125 13 -66
27 -122 31 -125 4 -3 15 -61 25 -130 10 -69 21 -127 25 -130 8 -7 27 -158 35
-290 4 -58 12 -108 18 -112 15 -10 15 -736 0 -746 -6 -4 -14 -47 -18 -97 -10
-138 -29 -299 -36 -305 -4 -3 -14 -59 -24 -125 -10 -66 -21 -122 -25 -125 -5
-3 -19 -60 -31 -127 -13 -68 -27 -123 -31 -123 -4 0 -15 -35 -25 -77 -10 -43
-21 -80 -25 -83 -4 -3 -14 -34 -23 -70 -9 -35 -20 -67 -25 -70 -4 -3 -18 -40
-31 -82 -13 -43 -26 -78 -30 -78 -4 0 -13 -20 -19 -44 -6 -25 -17 -50 -23 -58
-7 -7 -21 -37 -32 -67 -10 -30 -24 -61 -32 -68 -8 -8 -14 -22 -14 -31 0 -9 -7
-26 -15 -36 -8 -11 -15 -27 -15 -37 0 -9 -6 -19 -13 -22 -7 -3 -19 -23 -27
-46 -7 -23 -17 -41 -21 -41 -4 0 -11 -13 -17 -28 -5 -16 -16 -35 -24 -43 -7
-8 -25 -38 -38 -66 -14 -29 -28 -53 -31 -53 -4 0 -9 -8 -13 -17 -7 -22 -25
-50 -48 -77 -10 -11 -18 -23 -18 -27 0 -4 -6 -14 -12 -21 -17 -19 -36 -48 -48
-76 -5 -12 -14 -22 -19 -22 -6 0 -18 -14 -26 -31 -9 -16 -25 -39 -36 -50 -10
-10 -19 -23 -19 -29 0 -5 -6 -10 -13 -10 -6 0 -18 -13 -25 -30 -8 -16 -29 -44
-48 -62 -19 -18 -34 -38 -34 -45 0 -7 -6 -13 -14 -13 -8 0 -17 -8 -21 -19 -3
-10 -19 -29 -35 -41 -17 -13 -30 -29 -30 -36 0 -8 -7 -14 -15 -14 -8 0 -15 -5
-15 -11 0 -13 -107 -119 -120 -119 -6 0 -10 -6 -10 -13 0 -7 -14 -23 -32 -37
-29 -23 -62 -52 -124 -108 -14 -12 -37 -30 -52 -40 -29 -19 -51 -36 -85 -68
-12 -12 -40 -29 -62 -40 -22 -10 -48 -29 -58 -41 -10 -13 -25 -23 -33 -23 -8
0 -14 -4 -14 -9 0 -5 -13 -13 -28 -19 -16 -5 -36 -17 -44 -26 -9 -9 -37 -25
-62 -36 -25 -10 -46 -23 -46 -28 0 -4 -22 -16 -50 -26 -27 -10 -50 -21 -50
-25 0 -3 -21 -15 -48 -25 -26 -11 -49 -22 -52 -26 -3 -3 -39 -17 -80 -30 -41
-14 -80 -30 -86 -36 -7 -6 -37 -16 -68 -23 -31 -7 -56 -16 -56 -20 0 -4 -39
-16 -87 -26 -49 -10 -90 -22 -93 -26 -3 -4 -68 -18 -145 -30 -77 -13 -142 -27
-145 -31 -7 -9 -385 -28 -480 -23 -188 9 -290 18 -290 26 0 5 -14 9 -30 9 -44
0 -284 42 -290 50 -3 4 -41 15 -84 23 -44 9 -82 20 -85 25 -3 5 -34 17 -68 27
-35 10 -63 22 -63 26 0 4 -25 13 -55 20 -31 7 -58 16 -61 21 -3 4 -14 8 -25 8
-10 0 -19 4 -19 9 0 5 -20 17 -45 27 -25 9 -45 20 -45 23 0 4 -22 15 -50 25
-27 10 -50 21 -50 25 0 3 -25 17 -55 30 -30 14 -55 27 -55 31 0 3 -17 14 -37
25 -21 11 -47 28 -57 37 -11 10 -26 18 -33 18 -8 0 -16 7 -19 15 -4 8 -10 15
-15 15 -13 0 -85 51 -137 98 -14 12 -28 22 -33 22 -4 0 -27 18 -50 40 -24 22
-46 40 -50 40 -10 0 -109 100 -109 111 0 5 -6 9 -14 9 -20 0 -239 225 -284
291 -20 29 -46 59 -84 97 -16 14 -28 32 -28 40 0 7 -6 15 -14 18 -8 3 -24 23
-35 45 -11 21 -27 46 -36 56 -52 60 -65 77 -65 88 0 6 -9 21 -21 33 -11 13
-27 38 -35 57 -7 19 -20 38 -27 42 -7 4 -21 27 -31 51 -11 23 -22 42 -26 42
-4 0 -15 21 -25 47 -10 26 -26 56 -35 65 -9 10 -23 36 -30 58 -7 22 -17 40
-21 40 -5 0 -14 18 -20 41 -7 23 -19 43 -26 46 -7 3 -13 13 -13 23 0 11 -4 21
-9 24 -5 3 -12 22 -15 41 -4 19 -11 35 -15 35 -5 0 -19 32 -30 70 -12 38 -25
70 -29 70 -7 0 -42 105 -42 127 0 6 -5 13 -10 15 -6 2 -18 35 -27 73 -8 39
-19 72 -24 75 -4 3 -18 50 -30 105 -13 55 -27 103 -31 106 -4 3 -15 45 -24 95
-9 49 -20 91 -24 94 -4 3 -16 65 -26 138 -9 72 -21 132 -24 132 -4 0 -12 55
-19 123 -7 67 -14 138 -16 157 -3 19 -8 105 -11 190 -4 95 -11 158 -18 163 -8
6 -7 10 2 14 7 3 12 24 12 54 0 32 -4 49 -12 49 -9 0 -8 4 2 10 13 9 13 11 0
21 -11 8 -12 12 -2 16 6 2 12 16 12 29 0 13 -6 24 -12 25 -10 0 -10 2 0 6 8 3
12 37 12 118 0 63 4 158 9 212 29 296 35 343 42 343 5 0 9 11 9 25 0 47 33
225 42 225 4 0 8 10 8 22 0 31 31 182 39 188 4 3 17 50 31 105 13 55 26 102
29 105 9 7 31 74 31 92 0 9 6 23 13 30 7 7 21 43 31 81 10 37 22 67 26 67 4 0
18 32 30 71 12 40 28 78 36 86 8 8 14 23 14 33 0 10 5 22 10 25 6 3 10 15 10
26 0 10 4 19 9 19 5 0 15 16 21 36 7 19 18 38 26 41 8 3 14 12 14 20 0 17 40
104 52 113 3 3 14 25 24 49 9 24 28 55 41 69 12 14 23 31 23 38 0 8 4 14 9 14
5 0 19 21 32 48 12 26 28 50 34 54 7 4 18 21 25 38 7 16 16 30 21 30 5 0 17
17 27 38 9 20 24 42 33 49 9 7 22 26 29 43 7 16 19 30 26 30 8 0 14 6 14 13 0
7 16 30 35 52 19 22 35 43 35 48 0 4 7 7 15 7 8 0 15 6 15 14 0 7 18 31 40 52
22 22 40 45 40 52 0 6 7 12 15 12 8 0 15 4 15 8 0 5 33 42 74 83 87 87 102 99
116 99 5 0 10 5 10 11 0 15 81 89 97 89 7 0 13 7 13 15 0 8 4 15 8 15 5 0 26
16 48 35 21 19 42 35 45 35 3 0 17 10 31 23 54 47 124 97 138 97 5 0 10 4 10
10 0 5 16 17 35 26 19 9 35 20 35 24 0 4 18 15 40 25 22 10 40 21 40 25 0 3
25 17 55 31 30 13 55 27 55 30 0 4 21 14 47 24 26 10 56 27 67 37 11 10 28 18
37 18 10 0 24 7 32 14 8 8 43 25 78 36 35 12 66 25 69 29 3 4 34 16 70 26 36
10 67 22 70 26 6 7 128 39 152 39 9 0 18 4 20 9 3 9 218 51 261 51 15 0 27 4
27 9 0 32 470 42 758 16z"/>
<path d="M4200 8086 c0 -7 11 -17 24 -20 25 -6 25 -7 28 -144 2 -75 2 -142 0
-149 -2 -6 -12 -13 -23 -16 -26 -7 -26 -47 0 -47 11 0 22 6 24 13 4 10 6 10 6
0 1 -15 61 -18 61 -3 0 6 14 10 30 10 20 0 30 5 30 15 0 9 -9 15 -24 15 -21 0
-24 6 -30 53 -10 91 -13 87 49 87 44 0 57 -4 62 -17 7 -18 22 -33 36 -33 4 0
7 32 7 70 0 62 -2 70 -19 70 -13 0 -21 -8 -23 -22 -3 -20 -10 -23 -61 -26
l-58 -3 3 63 c3 61 4 63 32 66 56 7 114 -7 119 -28 3 -11 13 -20 22 -20 13 0
16 8 13 38 l-3 37 -152 3 c-127 2 -153 0 -153 -12z"/>
<path d="M3931 8073 c-43 -9 -99 -63 -107 -103 -4 -16 -10 -30 -15 -30 -16 0
-10 -120 6 -136 8 -9 15 -23 15 -32 1 -38 56 -78 119 -88 71 -11 123 3 170 46
35 32 44 49 50 90 9 55 -3 143 -22 167 -16 19 -51 54 -71 71 -18 15 -106 24
-145 15z m121 -75 c10 -13 24 -30 30 -38 8 -9 13 -46 13 -100 0 -82 -1 -88
-29 -113 -54 -51 -141 -31 -162 37 -4 12 -11 24 -17 28 -6 3 -11 39 -11 80 -1
77 13 108 59 129 34 15 98 3 117 -23z"/>
<path d="M4746 8072 c-3 -6 -9 -31 -12 -56 -7 -51 8 -64 28 -22 11 26 36 34
77 27 21 -3 23 -7 17 -47 -3 -24 -9 -65 -12 -91 -4 -27 -10 -50 -14 -53 -4 -3
-11 -27 -16 -55 -8 -45 -12 -50 -37 -53 -44 -5 -26 -26 31 -36 29 -5 52 -13
52 -18 0 -4 14 -8 30 -8 23 0 30 5 30 19 0 10 -9 21 -20 24 -19 5 -20 10 -14
74 4 37 10 70 14 73 4 3 13 40 20 83 l13 78 31 -7 c36 -8 55 -29 56 -61 0 -14
6 -23 15 -23 9 0 15 9 15 24 0 13 6 27 13 30 9 5 9 7 -2 12 -11 5 -11 8 0 15
7 4 11 11 7 14 -9 10 -119 34 -155 35 -17 0 -33 4 -35 9 -5 14 -124 26 -132
13z"/>
<path d="M5110 7987 c0 -9 5 -17 12 -19 15 -5 -15 -122 -36 -144 -8 -7 -17
-32 -21 -54 -4 -22 -12 -46 -19 -53 -7 -6 -15 -20 -19 -29 -4 -11 -17 -18 -33
-18 -42 0 -22 -22 34 -38 29 -8 52 -18 52 -23 0 -5 11 -9 25 -9 27 0 34 17 10
26 -8 4 -15 17 -15 31 0 13 7 31 15 39 8 9 15 24 15 35 0 11 7 22 15 25 16 7
117 -24 126 -39 10 -14 -10 -75 -32 -102 -13 -14 -28 -21 -40 -18 -13 4 -19 0
-19 -11 0 -9 7 -16 15 -16 8 0 15 -4 15 -9 0 -11 100 -44 108 -36 4 3 1 14 -5
25 -12 18 -3 77 14 89 5 3 17 31 27 61 11 30 22 57 26 60 3 3 13 23 21 45 10
28 21 41 37 43 31 5 23 24 -13 34 -15 4 -31 12 -34 17 -9 15 -91 26 -91 13 0
-6 9 -14 20 -17 23 -7 25 -25 8 -74 -22 -62 -30 -66 -103 -45 -60 17 -65 21
-65 46 0 16 4 28 9 28 4 0 16 21 26 47 10 26 20 42 23 35 5 -17 29 -15 36 3 3
9 0 15 -9 15 -8 0 -15 4 -15 9 0 5 -21 15 -47 22 -27 7 -54 15 -60 17 -7 2
-13 -3 -13 -11z"/>
<path d="M3460 7920 c0 -5 -18 -10 -40 -10 -22 0 -40 -4 -40 -9 0 -5 -13 -14
-29 -21 -49 -20 -58 -112 -16 -155 14 -14 28 -25 30 -25 2 0 38 -5 80 -11 62
-8 82 -15 101 -36 30 -33 30 -42 -3 -70 -29 -25 -83 -31 -105 -10 -15 13 -55
37 -63 37 -13 0 -3 -39 15 -60 11 -13 20 -29 20 -36 0 -21 22 -28 34 -12 6 8
29 18 51 22 66 12 95 29 107 64 7 17 16 32 20 32 4 0 8 9 8 20 0 11 -4 20 -9
20 -5 0 -11 12 -13 26 -2 15 -12 32 -23 38 -11 6 -23 14 -26 19 -3 4 -41 11
-85 17 -61 8 -83 15 -96 31 -24 29 -22 46 7 65 31 20 87 12 116 -17 17 -17 39
-26 39 -15 0 14 -24 66 -30 66 -4 0 -10 9 -13 20 -5 20 -37 29 -37 10z"/>
<path d="M5500 7822 c0 -4 10 -16 22 -26 18 -16 19 -20 7 -30 -8 -6 -23 -29
-34 -51 -11 -22 -22 -42 -26 -45 -3 -3 -16 -27 -29 -55 -13 -27 -30 -54 -37
-58 -7 -4 -13 -15 -13 -22 0 -8 -9 -15 -20 -15 -11 0 -20 5 -20 10 0 6 -5 10
-11 10 -6 0 -9 -10 -7 -21 2 -14 17 -27 44 -38 22 -9 51 -26 64 -38 13 -13 32
-23 41 -23 10 0 22 -6 26 -13 10 -15 57 -37 81 -37 17 0 72 54 72 71 0 13 -38
11 -46 -2 -8 -14 -66 -6 -116 15 -43 19 -50 49 -19 82 10 11 22 30 25 42 9 26
17 27 59 6 39 -20 47 -31 47 -66 0 -31 17 -37 27 -10 4 9 12 22 19 27 7 6 16
27 19 48 7 36 -1 47 -21 27 -12 -12 -62 -4 -87 15 -17 12 -18 18 -7 49 26 80
57 82 135 10 16 -15 22 -29 18 -43 -7 -26 18 -29 41 -5 29 28 20 61 -21 81
-21 9 -40 20 -43 23 -3 4 -27 17 -55 30 -27 13 -59 32 -69 42 -20 18 -66 25
-66 10z"/>
<path d="M3075 7720 c-16 -5 -34 -16 -40 -23 -5 -7 -26 -19 -45 -27 -19 -7
-43 -22 -53 -32 -10 -10 -22 -18 -27 -18 -6 0 -10 -4 -10 -10 0 -5 16 -10 36
-10 30 0 37 -4 49 -34 8 -19 18 -36 22 -38 5 -1 18 -24 31 -50 13 -27 27 -48
31 -48 4 0 15 -19 24 -42 13 -31 14 -45 5 -55 -6 -7 -8 -16 -5 -19 9 -9 78 17
83 31 3 7 16 16 30 19 13 4 24 14 24 22 0 12 -6 15 -25 10 -19 -5 -28 -1 -42
21 -10 16 -23 32 -30 36 -14 9 -18 47 -5 47 18 0 157 -45 160 -52 7 -17 62 -7
86 16 31 28 32 36 6 36 -28 0 -110 23 -110 31 0 4 -16 10 -35 13 -36 7 -44 23
-23 44 17 17 14 100 -4 119 -19 19 -92 26 -133 13z m68 -69 c23 -39 21 -57 -8
-86 -34 -35 -51 -31 -75 15 -11 22 -25 40 -30 40 -6 0 -10 7 -10 15 0 8 7 15
15 15 9 0 18 7 21 15 4 9 19 15 38 15 24 0 36 -7 49 -29z"/>
<path d="M2798 7553 c-10 -2 -18 -11 -18 -18 0 -8 -8 -16 -17 -19 -10 -3 -38
-24 -63 -46 -25 -22 -48 -40 -52 -40 -12 0 -48 -39 -48 -51 0 -7 9 -9 22 -6
24 7 58 -8 58 -24 0 -6 11 -20 25 -31 14 -11 25 -24 25 -30 0 -6 10 -21 23
-33 26 -26 50 -54 72 -89 16 -23 16 -27 -2 -50 -32 -44 -51 -35 -158 72 -28
28 -57 52 -62 52 -21 0 -45 50 -38 81 4 16 3 29 -2 29 -11 -1 -43 -26 -43 -34
0 -3 -16 -22 -35 -40 -19 -19 -35 -41 -35 -50 0 -19 11 -21 27 -5 14 14 73 -9
73 -28 0 -7 3 -13 8 -13 4 0 15 -7 25 -14 16 -12 13 -18 -38 -70 -57 -60 -59
-60 -98 -18 -7 7 -20 21 -29 29 -11 11 -15 25 -11 45 6 32 -5 36 -28 11 -9
-10 -33 -33 -53 -51 -48 -44 -48 -65 -1 -56 31 6 38 2 67 -30 17 -20 36 -36
41 -36 5 0 30 -22 57 -49 26 -27 53 -50 60 -53 7 -2 13 -18 12 -36 0 -18 3
-32 8 -32 10 0 110 96 110 105 0 2 -17 4 -37 4 -31 -1 -45 5 -75 34 -21 20
-38 40 -38 46 0 6 14 24 30 39 17 16 30 34 30 39 0 6 12 14 26 17 21 6 33 0
65 -33 33 -32 39 -44 33 -65 -5 -20 -2 -26 10 -26 9 0 19 7 22 15 4 8 12 15
20 15 8 0 14 6 14 13 0 14 75 87 89 87 5 0 16 11 25 25 9 14 23 25 31 25 8 0
20 9 27 20 7 11 18 20 25 20 6 0 20 11 31 25 11 14 24 25 30 25 26 0 32 28 16
76 -20 61 -19 60 -41 38 -13 -12 -14 -19 -5 -22 17 -5 15 -49 -3 -56 -8 -3
-15 -12 -15 -19 0 -8 -11 -19 -25 -25 -14 -7 -28 -19 -31 -27 -4 -8 -12 -15
-20 -15 -16 0 -67 49 -77 73 -3 9 -11 17 -17 17 -20 0 -10 16 23 35 17 10 38
25 46 32 9 9 24 12 42 8 34 -8 38 6 10 34 -11 11 -24 29 -31 40 -15 29 -44 28
-37 -1 7 -24 -8 -58 -24 -58 -6 0 -19 -10 -29 -22 -15 -19 -21 -21 -41 -11
-13 6 -32 26 -42 46 -18 34 -18 35 0 57 29 35 69 52 108 44 28 -5 35 -3 35 10
0 9 -4 16 -9 16 -5 0 -13 9 -16 20 -6 19 -21 23 -57 13z"/>
<path d="M6087 7417 c-3 -7 -28 -19 -56 -27 -28 -7 -51 -17 -51 -21 0 -4 -21
-15 -47 -25 -27 -10 -50 -21 -53 -25 -7 -10 -91 -39 -112 -39 -34 0 -21 -34
24 -63 35 -22 38 -22 38 8 0 19 8 28 38 40 36 16 37 16 59 -9 12 -14 25 -26
28 -26 4 0 13 -7 22 -15 12 -12 13 -24 6 -53 -8 -32 -13 -37 -36 -35 -16 1
-27 -3 -27 -11 0 -15 48 -66 61 -66 5 0 9 -7 9 -15 0 -8 9 -15 20 -15 11 0 20
-6 20 -13 0 -7 8 -19 18 -28 9 -8 33 -34 52 -58 19 -24 57 -66 84 -94 49 -50
49 -50 85 -37 20 7 39 18 43 24 13 18 9 36 -7 36 -8 0 -15 -4 -15 -10 0 -5 -9
-10 -20 -10 -11 0 -20 5 -20 10 0 6 -5 10 -12 10 -6 0 -30 19 -54 42 -37 37
-41 44 -31 65 5 13 14 23 19 23 4 0 17 8 27 18 10 9 33 29 50 44 17 15 31 32
31 37 0 5 8 12 18 15 32 13 62 31 62 38 0 5 7 8 15 8 8 0 15 -4 15 -10 0 -5 7
-10 15 -10 19 0 20 16 2 27 -8 4 -22 22 -32 38 -20 31 -54 64 -68 65 -5 0 -6
-13 -2 -28 5 -23 -1 -34 -31 -65 -21 -20 -41 -37 -44 -37 -4 0 -25 -17 -46
-38 -57 -57 -90 -75 -119 -68 -31 8 -39 39 -25 96 7 25 14 57 17 73 3 15 9 27
14 27 4 0 13 19 20 43 21 82 34 117 41 117 5 0 8 14 8 30 0 25 -4 30 -24 30
-13 0 -26 -6 -29 -13z m-57 -129 c-8 -24 -15 -45 -16 -47 -2 -2 -17 11 -35 28
-18 19 -28 36 -23 41 10 10 77 29 83 24 2 -2 -2 -23 -9 -46z"/>
<path d="M3855 6263 l-400 -988 -223 -3 -222 -2 0 -435 0 -435 39 0 39 0 -60
-152 c-145 -371 -270 -628 -403 -829 -99 -149 -123 -166 -300 -212 l-50 -13
-3 -62 -3 -62 596 0 595 0 0 70 0 70 -57 0 c-175 1 -309 76 -339 191 -17 66
-3 141 68 359 65 197 110 318 315 838 l167 422 236 0 235 0 2 -883 c1 -485 6
-1078 11 -1317 6 -274 6 -448 0 -470 -6 -20 -30 -54 -57 -80 -57 -56 -138 -85
-282 -102 l-99 -11 0 -68 0 -69 705 0 705 0 0 69 0 70 -57 6 c-223 24 -324 68
-363 159 -17 38 -18 124 -22 1369 l-4 1327 42 0 c48 0 28 34 159 -280 227
-544 426 -1069 464 -1220 20 -81 20 -89 5 -139 -19 -65 -81 -131 -140 -149
-23 -6 -91 -12 -153 -12 l-111 0 0 -70 0 -70 755 0 755 0 0 68 0 69 -66 12
c-114 21 -173 49 -234 110 -60 62 -33 5 -356 729 -85 189 -154 346 -154 348 0
2 27 4 60 4 l60 0 0 425 0 425 -246 0 -245 0 -14 33 c-8 17 -196 462 -418 987
l-405 955 -64 3 -63 3 -400 -988z m522 -461 c116 -273 215 -505 218 -514 7
-17 -18 -18 -434 -18 l-441 0 16 38 c10 20 84 203 165 405 141 350 245 587
258 587 3 0 101 -224 218 -498z m1037 -911 c84 -126 131 -245 151 -381 3 -24
4 -42 2 -40 -4 4 -195 440 -215 489 -12 31 17 -1 62 -68z"/>
<path d="M2204 6955 c-16 -19 -34 -35 -41 -35 -16 0 -53 -102 -53 -146 0 -57
38 -128 79 -150 20 -11 42 -25 49 -31 8 -8 40 -13 76 -13 50 0 68 4 87 21 13
12 31 26 40 33 25 18 49 59 49 83 0 13 5 23 10 23 6 0 10 14 10 30 0 17 -4 30
-10 30 -5 0 -10 7 -10 15 0 8 -4 15 -10 15 -11 0 -11 2 -15 -60 -2 -48 -22
-90 -41 -90 -7 0 -14 -7 -18 -15 -9 -24 -117 -21 -146 5 -12 11 -31 22 -41 25
-11 4 -19 10 -19 14 0 4 -9 18 -20 31 -19 22 -21 28 -23 68 -2 47 38 101 76
102 9 0 17 5 17 10 0 6 9 10 20 10 11 0 20 -4 20 -10 0 -5 9 -10 20 -10 36 0
23 35 -21 58 -22 12 -44 22 -48 22 -4 0 -21 -16 -37 -35z"/>
<path d="M6555 6940 c10 -33 -4 -59 -43 -77 -20 -9 -43 -25 -50 -35 -7 -10
-19 -18 -26 -18 -7 0 -24 -10 -37 -23 -38 -36 -77 -53 -91 -39 -15 15 -48 16
-48 2 0 -5 7 -18 15 -27 8 -10 23 -27 33 -38 9 -11 26 -37 37 -58 11 -20 23
-37 27 -37 4 0 17 -18 29 -40 12 -21 27 -41 34 -44 20 -7 95 17 95 31 0 14 0
14 -45 18 -33 3 -80 43 -104 88 -11 21 -12 29 -1 42 7 8 19 15 26 15 8 0 14 4
14 9 0 5 14 17 31 25 29 15 33 15 45 -2 7 -9 14 -23 14 -30 0 -7 7 -15 15 -18
17 -7 21 -34 5 -34 -5 0 -10 -9 -10 -20 0 -32 32 -22 93 30 26 22 22 43 -7 36
-35 -9 -52 1 -74 43 l-20 37 22 20 c36 31 79 51 83 37 2 -6 13 -22 25 -35 31
-35 39 -65 26 -93 -16 -35 -5 -41 37 -21 30 14 35 21 29 39 -4 12 -13 26 -20
30 -8 4 -14 15 -14 23 0 8 -10 25 -23 38 -13 13 -31 40 -41 60 -9 20 -21 36
-27 36 -5 0 -14 11 -19 25 -12 31 -45 35 -35 5z"/>
<path d="M6780 6605 c0 -34 -18 -85 -30 -85 -3 0 -12 -17 -19 -37 -22 -61 -22
-61 -118 -45 -49 8 -90 18 -93 22 -3 5 -18 12 -34 16 -26 6 -28 5 -21 -17 4
-13 11 -25 16 -27 4 -2 13 -19 19 -38 13 -38 33 -41 38 -6 3 19 8 20 55 15 28
-4 57 -12 63 -18 15 -14 6 -65 -12 -72 -8 -3 -14 -11 -14 -18 0 -19 -27 -38
-35 -25 -3 5 -11 10 -17 10 -13 0 -1 -50 16 -64 7 -6 19 -26 26 -43 16 -41 50
-46 50 -8 0 27 37 143 52 159 5 6 14 19 21 29 11 16 17 16 97 2 52 -9 87 -21
93 -30 22 -40 38 6 16 46 -14 28 -42 59 -51 59 -5 0 -8 -9 -8 -21 0 -19 -4
-20 -52 -14 -29 4 -55 9 -57 11 -2 2 4 24 13 48 17 44 46 70 46 41 0 -19 16
-19 23 -1 6 14 -28 95 -43 106 -3 3 -9 13 -13 23 -11 29 -27 19 -27 -18z"/>
<path d="M1910 6499 c0 -12 8 -29 18 -38 10 -9 29 -33 41 -54 13 -22 33 -49
45 -62 12 -12 30 -34 41 -49 11 -15 30 -39 43 -54 13 -14 26 -39 29 -54 6 -32
19 -36 28 -9 3 10 14 29 25 41 29 34 26 54 -6 46 -58 -15 -97 50 -56 92 9 10
22 27 28 38 20 35 111 25 98 -11 -4 -9 0 -15 10 -15 9 0 16 7 16 15 0 7 6 18
14 22 17 10 36 46 36 68 0 13 -6 16 -26 11 -32 -8 -284 14 -284 26 0 4 -22 8
-50 8 -44 0 -50 -2 -50 -21z m110 -59 c0 -5 20 -10 45 -10 33 0 45 -4 45 -15
0 -8 -4 -15 -9 -15 -5 0 -13 -9 -16 -20 -9 -28 -24 -25 -57 12 -28 32 -36 58
-18 58 6 0 10 -4 10 -10z"/>
<path d="M1749 6215 c-7 -25 -17 -45 -20 -45 -4 0 -15 -24 -23 -54 -9 -30 -20
-56 -25 -58 -14 -5 -26 -78 -13 -78 6 0 14 9 17 20 6 19 25 28 25 12 0 -4 27
-16 60 -25 33 -10 60 -22 60 -26 0 -4 28 -16 63 -26 66 -20 87 -34 87 -59 0
-9 5 -16 11 -16 20 0 40 29 55 80 8 27 18 50 22 50 4 0 14 21 21 48 8 26 18
52 22 58 20 25 -30 84 -70 84 -16 0 -13 -26 4 -44 16 -15 21 -86 7 -86 -5 0
-14 -18 -21 -40 -9 -29 -17 -40 -31 -40 -11 0 -20 4 -20 9 0 4 -21 14 -46 21
-43 12 -46 15 -40 42 3 15 15 38 26 50 11 12 20 25 20 30 0 4 12 8 26 8 40 0
24 21 -29 38 -26 8 -47 19 -47 23 0 5 -7 9 -15 9 -18 0 -20 -31 -4 -47 13 -13
5 -71 -14 -96 -11 -16 -15 -16 -64 0 -47 15 -53 20 -53 44 0 15 4 29 9 31 5 2
18 19 28 38 14 25 27 35 44 35 31 0 32 29 2 33 -13 2 -23 8 -23 13 0 5 -9 9
-19 9 -14 0 -22 -12 -32 -45z"/>
<path d="M6673 6073 c7 -43 24 -57 44 -37 18 17 87 18 101 2 6 -7 13 -30 17
-50 4 -21 11 -38 16 -38 19 0 7 -26 -22 -49 -23 -18 -33 -21 -42 -12 -14 14
-27 14 -27 0 0 -6 7 -35 16 -65 18 -62 45 -74 62 -26 5 15 26 44 47 63 20 19
60 58 89 88 28 29 63 65 79 79 29 27 32 39 17 62 -9 13 -11 13 -20 0 -9 -13
-11 -13 -20 0 -6 10 -10 11 -10 3 0 -8 -13 -13 -30 -13 -16 0 -30 5 -30 10 0
6 -40 10 -100 10 -73 0 -100 -3 -100 -12 0 -9 -3 -10 -8 -2 -4 6 -24 14 -46
17 l-38 6 5 -36z m291 -31 c-6 -4 -16 -17 -23 -29 -6 -13 -18 -23 -26 -23 -8
0 -15 -4 -15 -10 0 -5 -7 -10 -15 -10 -8 0 -15 4 -15 9 0 5 -3 23 -6 40 l-6
31 58 0 c33 0 54 -4 48 -8z"/>
<path d="M1624 5898 c-6 -7 -19 -47 -29 -88 -11 -41 -22 -77 -25 -80 -14 -12
-31 -70 -28 -96 2 -21 9 -30 26 -32 12 -2 22 -8 22 -13 0 -5 7 -9 15 -9 22 0
18 38 -5 52 -21 13 -28 48 -10 48 6 0 10 7 10 16 0 14 8 16 41 11 23 -3 45 -9
48 -14 3 -5 40 -17 81 -28 41 -10 84 -27 94 -37 11 -10 23 -18 28 -18 4 0 8
-9 8 -20 0 -42 18 -17 38 54 26 88 26 86 7 86 -8 0 -15 -7 -15 -15 0 -18 -76
-22 -82 -4 -2 5 -19 14 -38 19 -90 23 -125 34 -130 40 -3 4 -14 9 -25 11 -49
10 -7 88 48 89 26 0 36 13 19 24 -22 13 -88 16 -98 4z"/>
<path d="M7150 5808 c0 -13 -4 -28 -8 -34 -4 -5 -54 -20 -112 -32 -58 -13
-106 -27 -108 -32 -6 -16 -69 -12 -76 5 -7 19 -26 20 -26 0 0 -7 5 -37 11 -65
11 -52 31 -63 37 -22 3 16 16 25 54 37 29 8 58 15 65 15 7 0 13 4 13 9 0 4 15
11 33 14 17 3 40 8 50 12 24 10 21 -5 -8 -39 -14 -16 -25 -32 -25 -36 0 -3
-16 -24 -35 -46 -19 -21 -35 -44 -35 -51 0 -7 -9 -17 -20 -23 -11 -6 -20 -17
-20 -25 0 -8 -8 -20 -19 -27 -10 -7 -22 -24 -26 -37 -7 -24 -7 -24 51 -16 33
4 61 10 64 14 7 10 113 41 138 41 12 0 22 5 22 10 0 18 72 11 86 -7 7 -10 15
-15 18 -12 9 9 -15 113 -28 121 -19 13 -26 9 -26 -16 0 -26 -26 -40 -95 -52
-22 -4 -42 -10 -45 -14 -3 -4 -17 -10 -32 -14 -33 -8 -38 8 -8 24 11 6 20 16
20 23 0 7 14 28 30 47 17 19 33 43 36 53 3 9 10 17 15 17 5 0 19 20 30 44 17
34 20 53 15 90 -8 48 -36 67 -36 24z"/>
<path d="M7268 5378 c-2 -13 -11 -24 -23 -27 -11 -2 -22 -7 -25 -11 -3 -4 -45
-12 -95 -19 -49 -6 -105 -13 -123 -15 -23 -4 -35 -1 -39 9 -3 8 -12 15 -20 15
-12 0 -14 -7 -10 -29 3 -15 9 -51 13 -80 4 -28 10 -51 14 -51 4 0 10 -18 14
-41 7 -43 70 -119 100 -119 9 0 16 -4 16 -10 0 -6 27 -10 60 -10 33 0 60 4 60
9 0 5 16 15 36 21 19 7 38 19 42 29 3 9 13 21 21 28 13 9 16 32 16 110 0 142
-12 213 -35 213 -12 0 -20 -8 -22 -22z m26 -129 c9 -48 7 -76 -6 -91 -7 -8
-18 -22 -24 -33 -6 -10 -30 -26 -55 -34 -24 -9 -45 -19 -47 -23 -5 -12 -32
-10 -32 2 0 6 -14 10 -31 10 -48 0 -85 32 -98 85 -6 25 -9 50 -6 55 6 10 85
27 173 36 34 4 62 11 62 15 0 5 13 9 29 9 24 0 29 -5 35 -31z"/>
<path d="M1463 5355 c-13 -14 -48 -273 -39 -283 4 -4 14 1 21 11 12 16 20 17
101 7 49 -6 117 -16 152 -21 57 -10 62 -13 62 -36 0 -47 25 -17 34 40 4 31 12
57 17 57 14 0 11 28 -3 33 -7 2 -24 -8 -37 -22 -16 -17 -26 -21 -29 -13 -2 6
-14 12 -27 12 -12 0 -37 3 -54 6 -25 5 -31 11 -31 33 0 47 12 71 36 77 14 4
24 14 24 24 0 18 -41 30 -102 30 -33 0 -37 -16 -8 -25 18 -6 21 -14 18 -63 -3
-64 -10 -69 -84 -57 l-44 6 0 55 c0 39 4 56 15 60 8 3 17 14 20 25 4 10 15 19
26 19 10 0 19 6 19 14 0 17 -73 26 -87 11z"/>
<path d="M1498 4984 c-10 -3 -18 -10 -18 -15 0 -5 -6 -9 -14 -9 -8 0 -30 -16
-49 -35 -63 -63 -61 -180 4 -250 19 -19 39 -35 45 -35 7 0 14 -6 17 -12 2 -9
29 -13 84 -13 62 0 83 4 97 18 10 9 24 17 31 17 8 0 22 12 32 28 10 15 22 30
28 34 5 4 10 40 10 81 0 57 -4 77 -17 91 -10 10 -18 24 -18 31 0 8 -8 16 -18
19 -10 4 -28 15 -40 27 -17 15 -39 21 -90 24 -37 2 -75 2 -84 -1z m160 -89 c4
-5 16 -15 27 -21 11 -6 24 -20 30 -32 5 -12 13 -22 17 -22 5 0 8 -9 8 -20 0
-11 -4 -20 -9 -20 -5 0 -11 -10 -13 -22 -2 -14 -15 -29 -33 -37 -16 -8 -31
-18 -33 -23 -5 -12 -132 -10 -132 2 0 6 -9 10 -21 10 -35 0 -79 33 -88 65 -13
50 14 109 60 128 22 10 179 3 187 -8z"/>
<path d="M7353 4940 c-3 -11 -13 -20 -23 -20 -10 0 -20 -4 -22 -10 -1 -5 -64
-13 -139 -16 -133 -7 -136 -6 -142 15 -8 34 -27 24 -27 -14 0 -19 4 -35 9 -35
4 0 11 -53 15 -117 4 -65 10 -121 14 -124 4 -4 26 -9 50 -13 52 -8 54 5 9 48
-27 26 -35 42 -40 86 -4 30 -3 58 1 62 4 4 36 8 72 10 l65 3 3 -48 c3 -47 -12
-77 -37 -77 -16 0 -13 -20 4 -26 9 -4 40 -3 70 1 45 5 55 10 55 26 0 13 -7 19
-24 19 -28 0 -36 16 -36 70 0 42 12 50 86 50 l42 0 4 -47 c5 -66 -1 -95 -23
-100 -37 -10 -21 -33 22 -33 l42 0 -7 123 c-8 143 -15 187 -28 187 -5 0 -12
-9 -15 -20z"/>
<path d="M7038 4498 c-4 -74 -1 -98 11 -98 3 0 11 10 16 23 9 19 19 22 73 25
50 2 62 0 62 -12 0 -8 -16 -23 -35 -32 -19 -9 -35 -19 -35 -23 0 -4 -15 -15
-32 -26 -44 -25 -62 -52 -65 -97 -3 -40 14 -61 29 -34 13 22 71 76 83 76 6 0
16 9 23 20 13 21 42 28 42 10 0 -15 48 -54 76 -62 40 -11 91 11 105 46 7 17
18 34 23 39 7 4 6 10 -4 17 -10 6 -11 10 -2 10 9 0 12 25 12 90 0 81 -2 90
-19 90 -10 0 -21 -9 -24 -20 -5 -19 -14 -20 -151 -20 l-146 0 -12 25 c-19 41
-26 29 -30 -47z m330 -88 c1 -19 -2 -41 -6 -48 -12 -17 -66 -19 -96 -2 -24 12
-42 62 -30 81 3 6 33 9 67 7 l62 -3 3 -35z"/>
<path d="M1350 4316 l0 -54 53 2 c42 1 56 -3 75 -21 12 -13 29 -23 37 -23 23
0 18 -15 -10 -30 -14 -7 -25 -17 -25 -21 0 -4 -15 -16 -34 -27 -31 -18 -35
-19 -50 -4 -8 9 -18 13 -22 9 -9 -9 7 -147 17 -147 5 0 26 18 48 40 21 22 42
40 46 40 4 0 16 11 27 25 11 14 26 25 33 25 8 0 18 7 23 15 5 10 29 18 69 21
57 5 62 4 73 -18 17 -31 15 -29 34 -22 17 7 22 34 6 34 -6 0 -10 30 -10 70 0
56 -3 70 -15 70 -9 0 -15 -9 -15 -24 0 -29 -14 -35 -90 -37 -54 -1 -110 13
-110 29 0 4 -12 13 -27 19 -35 15 -59 32 -89 61 -35 34 -44 27 -44 -32z"/>
<path d="M7300 3942 c0 -11 11 -24 25 -30 21 -10 25 -18 25 -53 l0 -42 -62 7
c-35 3 -96 9 -135 13 -40 3 -73 9 -73 13 0 4 -11 11 -24 14 -17 4 -26 14 -28
31 -2 15 -7 22 -14 17 -15 -10 -29 -172 -14 -172 6 0 15 11 20 26 10 24 12 25
72 18 35 -4 65 -11 66 -15 2 -5 22 -9 45 -9 80 -1 164 -25 130 -37 -7 -3 -13
-16 -13 -29 0 -19 -6 -26 -30 -31 -58 -11 -52 -34 11 -40 34 -4 41 -1 46 16 3
12 9 21 13 21 4 0 10 37 14 83 4 45 10 108 13 140 5 53 5 57 -16 57 -11 0 -21
5 -21 10 0 6 -11 10 -25 10 -18 0 -25 -5 -25 -18z"/>
<path d="M1421 3923 l-34 -4 7 -92 c3 -51 11 -93 16 -95 6 -2 10 -18 10 -35 0
-18 3 -49 6 -69 6 -37 8 -38 50 -38 23 0 45 4 48 9 11 17 -6 41 -30 41 -13 0
-28 9 -34 21 -15 26 -5 69 16 69 8 0 56 4 107 10 181 19 168 20 179 -6 20 -44
30 -26 23 44 -8 87 -13 112 -25 112 -5 0 -10 -12 -12 -27 -3 -27 -6 -28 -84
-39 -45 -7 -113 -15 -153 -19 l-71 -7 0 36 c0 24 7 42 20 53 22 19 27 44 8 41
-7 0 -28 -3 -47 -5z"/>
<path d="M6964 3606 c-11 -12 -36 -158 -38 -219 -1 -15 -8 -32 -15 -37 -12 -7
-11 -12 10 -29 13 -11 30 -20 37 -21 6 0 12 -4 12 -10 0 -16 27 -11 34 6 7 19
-1 34 -19 34 -20 0 -26 28 -19 91 8 68 18 75 96 64 l50 -7 -7 -45 c-9 -63 -14
-73 -35 -73 -22 0 -36 -18 -23 -31 4 -4 34 -11 66 -15 48 -6 57 -4 57 9 0 9
-9 19 -20 22 -14 4 -20 15 -20 36 0 16 4 29 9 29 5 0 11 12 13 28 3 25 5 27
47 24 67 -5 76 -19 61 -97 -11 -58 -15 -65 -36 -65 -28 0 -42 -19 -23 -31 8
-5 28 -9 45 -9 29 0 32 3 38 40 3 22 11 40 16 40 6 0 10 13 10 30 0 25 7 71
26 158 3 15 0 22 -11 22 -8 0 -15 -7 -15 -15 0 -11 -12 -15 -50 -15 -27 0 -50
4 -50 8 0 4 -35 14 -77 20 -131 21 -133 22 -139 48 -7 27 -14 29 -30 10z"/>
<path d="M1716 3574 c-8 -20 1 -34 22 -34 40 -1 68 -43 74 -110 2 -38 0 -45
-17 -48 -11 -3 -22 -8 -25 -12 -3 -4 -24 -10 -46 -13 -40 -7 -42 -6 -48 24
-11 58 -7 87 16 103 32 23 17 29 -52 21 -49 -6 -60 -10 -58 -24 2 -9 13 -17
25 -19 17 -3 24 -14 32 -53 6 -28 11 -54 11 -58 0 -5 -26 -14 -57 -19 -50 -9
-60 -8 -70 6 -15 19 -17 128 -3 137 15 9 12 35 -5 35 -31 0 -65 -23 -65 -46 0
-12 4 -24 9 -26 5 -1 17 -54 27 -115 11 -62 22 -113 27 -113 4 0 18 10 31 23
17 17 44 26 107 36 46 8 86 17 89 21 3 4 29 11 57 15 44 6 54 4 59 -9 3 -9 11
-16 16 -16 12 0 1 101 -11 110 -5 3 -13 40 -20 84 -13 87 -16 96 -37 96 -8 0
-14 5 -14 10 0 17 -67 12 -74 -6z"/>
<path d="M1880 3215 c0 -27 -18 -40 -73 -50 -20 -4 -37 -11 -37 -15 0 -8 -123
-40 -152 -40 -10 0 -18 -4 -18 -10 0 -19 -28 -10 -33 10 -3 11 -11 20 -17 20
-12 0 -10 -28 6 -95 12 -50 54 -77 54 -35 0 11 7 20 15 20 8 0 15 4 15 8 0 5
34 16 75 26 41 10 75 21 75 25 0 9 110 32 121 25 5 -3 9 -12 9 -20 0 -8 5 -14
10 -14 13 0 13 27 -1 91 -15 70 -49 107 -49 54z"/>
<path d="M6933 3227 c-24 -5 -43 -14 -43 -20 0 -5 -10 -19 -23 -31 -28 -26
-37 -47 -47 -105 -8 -48 9 -132 28 -139 8 -2 10 17 5 76 l-6 80 36 36 c20 20
47 36 59 37 74 4 153 -14 162 -36 3 -8 12 -15 19 -15 8 0 20 -13 27 -30 7 -16
16 -30 21 -30 5 0 9 -11 9 -25 0 -14 -4 -25 -8 -25 -4 0 -14 -16 -21 -36 -13
-36 -41 -54 -86 -54 -49 0 -42 -44 8 -54 66 -14 82 -12 82 9 0 25 34 95 46 95
5 0 9 34 9 75 0 41 -4 75 -9 75 -5 0 -14 13 -19 29 -6 16 -23 38 -39 48 -15 9
-30 20 -33 23 -11 12 -78 30 -106 29 -16 -1 -48 -6 -71 -12z"/>
<path d="M1900 2999 c0 -13 27 -41 54 -54 13 -6 25 -27 31 -50 5 -22 14 -43
20 -47 6 -5 6 -8 -2 -8 -7 0 -13 -11 -13 -24 0 -25 -35 -76 -52 -76 -6 0 -16
-7 -22 -15 -13 -16 -123 -36 -158 -28 -42 11 -80 59 -82 104 0 25 5 45 14 52
20 16 45 65 37 73 -9 9 -72 -14 -97 -36 -20 -18 -21 -21 -6 -35 9 -9 16 -28
16 -43 1 -70 49 -152 89 -152 6 0 11 -4 11 -10 0 -16 80 -32 130 -25 52 7 73
20 133 79 l39 38 -4 86 c-3 56 -9 87 -17 90 -7 2 -16 15 -21 28 -6 14 -18 27
-27 31 -10 4 -22 12 -26 20 -10 16 -47 18 -47 2z"/>
<path d="M6766 2889 c-3 -18 -12 -37 -20 -43 -18 -14 -32 -76 -17 -76 5 0 13
5 16 10 15 24 121 -2 131 -32 6 -21 -13 -88 -26 -88 -4 0 -11 -11 -14 -25 -6
-23 -36 -37 -36 -16 0 4 -20 16 -45 26 -37 14 -47 23 -52 46 -8 43 -19 36 -38
-25 -10 -30 -24 -57 -31 -60 -16 -6 -19 -36 -3 -36 6 0 19 5 30 10 14 8 32 6
66 -5 26 -9 50 -20 53 -24 3 -4 31 -18 63 -30 31 -13 57 -27 57 -31 0 -5 10
-10 23 -12 16 -2 23 -11 25 -30 6 -50 30 -32 55 38 19 58 22 94 7 94 -5 0 -10
-6 -10 -14 0 -8 -5 -18 -11 -21 -12 -8 -67 13 -87 32 -7 7 -20 13 -28 13 -18
0 -18 15 1 34 8 8 15 19 15 25 0 6 4 19 9 29 5 9 12 24 14 33 4 12 13 15 31
12 14 -3 26 -9 26 -14 0 -5 15 -12 33 -17 27 -7 33 -13 35 -40 4 -40 20 -41
33 -2 6 17 15 30 19 30 9 0 30 54 30 76 0 17 -27 19 -32 2 -3 -9 -15 -9 -51 1
-26 8 -47 18 -47 22 0 5 -6 9 -13 9 -14 0 -78 29 -87 39 -3 3 -25 13 -50 22
-40 14 -45 19 -42 42 5 39 -24 35 -32 -4z"/>
<path d="M1944 2595 c-17 -8 -34 -21 -37 -30 -4 -8 -13 -15 -22 -15 -8 0 -15
-4 -15 -8 0 -5 -10 -19 -22 -32 -18 -19 -22 -36 -22 -92 -1 -38 4 -72 10 -76
5 -4 16 -20 22 -37 13 -31 67 -65 102 -65 11 0 20 -4 20 -10 0 -5 16 -10 35
-10 19 0 35 3 35 8 0 4 18 13 41 20 132 41 173 217 75 318 -35 36 -39 37 -114
40 -52 3 -87 -1 -108 -11z m137 -55 c10 0 19 5 19 10 0 7 4 7 13 0 6 -6 25
-21 41 -34 26 -21 28 -29 24 -68 -7 -61 -64 -117 -136 -133 -18 -3 -32 -11
-32 -16 0 -5 -18 -9 -40 -9 -22 0 -40 4 -40 9 0 5 -9 11 -20 14 -21 5 -40 43
-40 79 0 25 29 88 41 88 5 0 18 9 29 20 11 11 40 26 65 32 25 7 45 17 46 23 0
5 3 4 6 -2 2 -7 13 -13 24 -13z"/>
<path d="M6600 2520 c0 -11 -5 -20 -11 -20 -8 0 -39 -58 -39 -75 0 -13 30 -3
39 13 8 12 13 14 18 5 5 -6 28 -19 53 -29 25 -10 48 -22 52 -28 3 -5 21 -17
39 -25 33 -16 50 -40 27 -38 -34 4 -168 -16 -168 -24 0 -5 -19 -9 -42 -9 -71
0 -118 -11 -118 -27 0 -8 9 -17 20 -20 11 -3 20 -9 20 -13 0 -4 20 -17 45 -29
25 -12 45 -25 45 -29 0 -4 20 -16 45 -26 25 -11 45 -23 45 -27 0 -4 12 -14 28
-21 21 -11 26 -20 24 -41 -1 -15 2 -27 8 -27 23 0 70 70 70 105 0 19 -26 20
-33 1 -6 -15 -57 -10 -57 6 0 5 -16 16 -35 24 -19 8 -35 18 -35 23 0 5 -12 14
-27 19 -25 9 -26 10 -5 11 12 1 22 5 22 10 0 5 59 14 130 21 129 13 130 13
145 43 8 17 15 36 15 44 0 7 5 13 10 13 6 0 10 5 10 10 0 18 -39 11 -50 -9
-10 -20 -50 -18 -50 3 0 6 -20 20 -45 31 -25 11 -45 23 -45 27 0 4 -15 14 -34
22 -49 20 -86 56 -86 83 0 14 -6 23 -15 23 -8 0 -15 -9 -15 -20z"/>
<path d="M2270 2250 c0 -5 -8 -10 -17 -10 -10 0 -27 -7 -37 -15 -17 -13 -20
-30 -24 -108 -4 -122 -14 -147 -58 -147 -30 0 -34 3 -40 35 -3 19 -3 48 0 63
14 56 18 82 13 82 -10 0 -87 -83 -87 -93 0 -5 8 -17 18 -26 10 -9 23 -32 28
-51 16 -56 90 -78 153 -45 35 17 40 38 40 137 -1 87 10 115 47 124 56 14 103
-88 60 -131 -18 -19 -21 -45 -5 -45 21 0 79 41 79 56 0 8 5 14 10 14 6 0 10 5
10 10 0 6 -7 10 -15 10 -8 0 -19 17 -26 43 -12 41 -52 86 -76 87 -7 0 -13 5
-13 10 0 6 -13 10 -30 10 -16 0 -30 -4 -30 -10z"/>
<path d="M6379 2161 c-9 -10 -22 -32 -30 -49 -8 -18 -20 -32 -26 -32 -7 0 -13
-9 -13 -19 0 -17 5 -19 34 -14 23 3 42 -1 62 -13 29 -19 34 -23 88 -69 16 -14
32 -25 35 -25 3 0 23 -15 43 -33 28 -25 36 -38 31 -55 -8 -32 13 -27 34 8 9
17 21 30 25 30 12 0 43 69 34 77 -4 4 -16 2 -26 -5 -15 -9 -25 -9 -45 0 -14 6
-25 14 -25 17 0 4 -15 15 -32 26 -18 10 -37 24 -41 32 -4 7 -14 13 -22 13 -7
0 -22 10 -32 23 -10 12 -28 27 -38 33 -14 9 -19 21 -17 43 2 35 -14 40 -39 12z"/>
<path d="M6228 1929 c-2 -6 -26 -13 -53 -15 -86 -8 -127 -26 -172 -73 -24 -24
-43 -48 -43 -53 0 -13 27 -9 44 7 29 30 116 48 116 25 0 -5 -4 -10 -10 -10 -5
0 -10 -25 -10 -55 0 -30 4 -55 9 -55 5 0 12 -12 15 -26 7 -28 63 -84 83 -84 7
0 13 -4 13 -10 0 -5 18 -14 41 -20 86 -23 176 20 210 101 16 41 16 127 -1 158
-18 34 -73 88 -99 96 -11 3 -21 11 -21 16 0 13 -118 11 -122 -2z m73 -60 c37
-19 73 -51 117 -104 24 -29 29 -79 10 -100 -7 -8 -19 -21 -26 -30 -15 -17 -77
-20 -118 -5 -15 6 -50 33 -77 60 -41 41 -50 57 -53 92 -5 45 5 65 41 86 25 15
80 15 106 1z"/>
<path d="M2564 1875 c-3 -8 -14 -17 -25 -20 -10 -4 -19 -13 -19 -21 0 -12 10
-15 38 -13 20 1 47 -1 59 -5 25 -8 77 -57 86 -80 6 -14 -55 -86 -73 -86 -4 0
-11 -6 -14 -12 -3 -9 -11 -5 -25 12 -11 14 -27 33 -35 43 -9 9 -16 33 -16 52
0 19 -2 35 -4 35 -3 0 -23 -18 -45 -40 -46 -45 -55 -76 -19 -67 28 8 70 -15
88 -47 13 -25 12 -28 -21 -61 -36 -36 -69 -46 -69 -20 0 8 -6 15 -12 15 -24 1
-52 53 -51 92 1 21 0 38 -2 38 -23 0 -54 -24 -59 -45 -7 -28 -10 -25 122 -160
28 -29 52 -58 52 -64 0 -6 9 -11 20 -11 11 0 20 7 20 15 0 8 -4 15 -10 15 -18
0 -10 20 20 52 17 17 30 35 30 39 0 5 6 9 13 9 7 0 43 29 80 65 37 36 71 65
76 65 11 0 61 -50 61 -61 0 -4 -11 -21 -25 -36 -66 -73 -95 -109 -95 -116 0
-5 -16 -24 -36 -43 -35 -32 -74 -45 -74 -24 0 6 -4 10 -10 10 -20 0 -9 -37 15
-50 14 -7 25 -19 25 -27 0 -7 6 -13 14 -13 7 0 19 -7 26 -15 7 -8 21 -15 31
-15 11 0 19 7 19 15 0 8 -4 15 -10 15 -17 0 -11 25 10 38 11 7 20 18 20 25 0
7 11 23 25 35 14 12 25 18 25 14 0 -5 15 -17 33 -26 17 -10 40 -28 49 -41 15
-20 16 -27 4 -49 -21 -41 -61 -68 -90 -60 -15 3 -26 2 -26 -3 0 -18 107 -113
127 -113 16 0 17 22 2 37 -15 15 7 50 81 132 16 19 30 37 30 40 0 4 18 26 40
49 22 22 40 37 40 32 0 -6 9 -10 20 -10 11 0 20 5 20 11 0 12 -60 69 -72 69
-5 0 -8 7 -8 15 0 8 -4 15 -9 15 -5 0 -17 3 -27 7 -15 5 -16 2 -11 -27 8 -36
-2 -56 -48 -106 -26 -28 -27 -28 -43 -8 -9 11 -34 29 -54 39 -35 18 -52 45
-28 45 6 0 10 5 10 10 0 11 13 28 45 61 14 14 27 18 47 14 35 -8 39 18 6 36
-13 7 -29 20 -36 31 -7 10 -18 18 -23 18 -13 0 -179 165 -179 179 0 5 -8 12
-18 16 -11 3 -24 17 -30 30 -9 19 -19 25 -42 25 -18 0 -33 -6 -36 -15z"/>
<path d="M5916 1634 c-59 -33 -89 -75 -94 -129 -3 -35 0 -56 10 -66 7 -8 22
-27 32 -44 11 -16 28 -36 38 -43 10 -7 18 -19 18 -27 0 -7 14 -24 31 -36 28
-20 31 -25 25 -60 -5 -31 -3 -39 9 -39 9 0 18 6 21 14 3 7 21 22 40 32 45 25
44 44 -2 42 -23 -1 -39 4 -44 13 -5 8 -22 30 -39 49 -17 19 -31 40 -31 46 0 5
-13 20 -30 32 -19 15 -30 31 -30 47 0 14 -4 25 -10 25 -5 0 -10 7 -10 15 0 8
4 15 8 15 5 0 14 11 20 25 6 14 18 25 26 25 7 0 16 7 20 15 7 19 40 20 58 2 7
-8 23 -19 36 -26 12 -6 22 -16 22 -21 0 -4 12 -22 28 -38 24 -26 65 -74 92
-109 6 -7 4 -13 -5 -17 -20 -7 -19 -36 0 -36 9 0 26 10 38 23 12 13 30 26 40
30 20 8 44 54 32 65 -4 4 -10 1 -12 -5 -8 -22 -31 -14 -63 20 -58 62 -100 112
-100 120 0 4 -5 7 -11 7 -6 0 -18 9 -27 20 -23 28 -98 36 -136 14z"/>
<path d="M5703 1458 c-4 -7 -28 -24 -53 -37 -25 -14 -49 -30 -53 -38 -4 -7
-14 -13 -21 -13 -7 0 -21 -8 -32 -17 -11 -10 -29 -23 -40 -29 -10 -6 -21 -19
-23 -29 -4 -21 19 -95 30 -95 10 0 19 27 19 55 0 28 31 62 81 89 34 18 37 18
62 1 15 -9 27 -24 27 -31 0 -8 9 -23 20 -34 11 -11 16 -20 12 -20 -5 0 -17 -8
-28 -19 -39 -36 -64 -44 -90 -30 -13 7 -27 9 -31 6 -8 -9 24 -81 49 -110 16
-18 21 -19 28 -7 6 8 10 27 10 42 0 17 7 29 18 32 10 4 29 16 41 28 21 19 24
19 32 5 5 -9 15 -22 22 -29 6 -8 18 -24 25 -36 11 -20 9 -24 -20 -41 -18 -11
-38 -24 -45 -30 -23 -20 -62 -24 -69 -7 -8 21 -34 21 -34 0 0 -27 33 -74 52
-74 10 0 18 4 18 10 0 5 11 12 24 16 13 3 33 16 44 29 11 13 36 29 56 36 20 7
36 16 36 20 0 4 16 16 35 28 44 26 46 46 5 37 -24 -4 -32 -2 -37 12 -4 9 -14
23 -24 29 -9 7 -20 24 -23 38 -4 14 -12 25 -20 25 -7 0 -19 18 -26 41 -8 22
-21 44 -31 49 -21 12 -34 59 -20 73 16 16 13 37 -4 37 -7 0 -18 -6 -22 -12z"/>
<path d="M3190 1365 c0 -3 5 -14 12 -24 9 -16 8 -27 -7 -60 -10 -23 -21 -41
-26 -41 -4 0 -15 -20 -25 -45 -9 -25 -21 -45 -26 -45 -4 0 -16 -16 -25 -35
-18 -38 -37 -43 -71 -19 -20 14 -22 22 -17 55 6 32 4 39 -9 39 -9 0 -16 -7
-16 -15 0 -9 -7 -18 -15 -21 -9 -4 -15 -19 -15 -39 0 -29 5 -35 35 -46 19 -7
35 -16 35 -20 0 -4 16 -14 35 -23 19 -9 35 -21 35 -25 0 -5 20 -16 45 -26 25
-9 53 -24 61 -33 15 -14 17 -14 26 2 6 10 19 25 29 34 23 20 25 52 4 52 -8 0
-15 -4 -15 -9 0 -15 -36 -23 -75 -15 -20 3 -35 12 -35 20 0 8 3 14 8 14 4 0
15 20 25 45 11 25 22 45 27 45 4 0 17 23 29 50 12 28 25 50 30 50 4 0 13 11
19 25 8 17 20 25 37 25 34 0 33 28 -2 41 -15 6 -30 13 -33 17 -15 21 -80 42
-80 27z"/>
<path d="M3680 1048 c0 -8 4 -18 9 -23 11 -12 -27 -164 -45 -182 -7 -7 -17
-13 -23 -13 -6 0 -11 -7 -11 -15 0 -9 9 -15 24 -15 14 0 31 -6 38 -13 15 -15
133 -41 147 -32 5 3 12 1 16 -5 3 -5 17 -10 31 -10 13 0 24 -4 24 -10 0 -19
33 -10 56 16 28 29 27 23 13 63 -6 17 -17 31 -25 31 -7 0 -18 9 -24 20 -9 17
-8 20 10 20 11 0 20 -4 20 -10 0 -5 7 -10 15 -10 8 0 15 8 15 18 0 33 -18 47
-60 47 -46 0 -60 -14 -60 -61 0 -22 8 -36 30 -52 31 -23 40 -52 17 -52 -19 0
-37 21 -37 42 0 11 -7 18 -20 18 -11 0 -20 -4 -20 -9 0 -16 -32 -22 -77 -15
-43 6 -44 7 -38 38 11 56 16 66 31 66 8 0 14 -4 14 -10 0 -5 7 -10 16 -10 9 0
22 -8 29 -17 11 -15 14 -15 27 -2 8 8 18 27 22 43 7 28 6 29 -28 23 -45 -7
-76 1 -76 22 1 19 29 72 30 54 0 -6 15 -15 32 -19 18 -3 38 -14 45 -23 9 -12
15 -13 23 -5 20 20 7 49 -23 52 -15 2 -27 7 -27 12 0 4 -24 13 -52 20 -29 6
-61 14 -70 17 -11 2 -18 -1 -18 -9z"/>
<path d="M5010 1039 c-32 -13 -40 -26 -40 -72 0 -30 5 -40 25 -49 28 -13 29
-16 15 -52 -12 -32 3 -76 25 -76 8 0 15 -4 15 -10 0 -21 63 -10 86 16 36 38
26 116 -18 129 -19 7 -26 35 -8 35 6 0 10 11 10 25 0 14 -4 25 -10 25 -5 0
-10 6 -10 14 0 25 -45 33 -90 15z m59 -71 c1 -24 -30 -23 -50 0 -11 13 -12 21
-4 29 30 28 52 16 54 -29z m25 -98 c30 -11 33 -34 9 -58 -12 -12 -18 -13 -21
-4 -2 6 -10 12 -17 12 -14 0 -24 28 -18 48 6 15 14 15 47 2z"/>
<path d="M4890 1003 c-33 -6 -52 -23 -46 -39 3 -8 -1 -20 -9 -28 -20 -19 -19
-52 1 -60 9 -3 28 -6 43 -6 29 0 71 -32 71 -55 0 -36 -12 -45 -61 -45 -49 0
-54 -4 -43 -34 6 -16 74 -24 74 -8 0 4 14 15 30 24 27 15 30 22 30 67 0 55 -7
81 -22 81 -5 0 -16 7 -24 15 -9 8 -26 15 -40 15 -13 0 -24 4 -24 9 0 10 24 21
47 21 17 0 43 24 43 39 0 11 -24 12 -70 4z"/>
<path d="M4690 970 c0 -5 -9 -10 -20 -10 -32 0 -53 -43 -46 -94 9 -57 31 -76
79 -70 26 3 37 0 37 -8 -1 -16 -48 -62 -72 -71 -26 -9 -22 -27 5 -27 26 0 52
17 97 62 29 29 32 37 32 94 0 50 -5 67 -23 88 -12 14 -29 26 -36 26 -7 0 -13
5 -13 10 0 6 -9 10 -20 10 -11 0 -20 -4 -20 -10z m50 -80 c13 -49 8 -60 -30
-60 -30 0 -40 15 -40 59 0 34 7 41 36 41 19 0 25 -8 34 -40z"/>
<path d="M4213 923 c8 -40 0 -49 -37 -45 -54 6 -86 -42 -86 -128 0 -43 28 -60
96 -60 58 0 103 16 77 27 -8 3 -13 25 -13 58 0 33 5 55 13 58 9 4 8 8 -3 16
-10 7 -11 11 -2 11 8 0 12 16 12 45 0 44 -1 45 -31 45 -29 0 -31 -2 -26 -27z
m-9 -99 c10 -39 -3 -94 -23 -94 -29 0 -43 17 -43 53 0 61 53 94 66 41z"/>
<path d="M4531 941 c-9 -6 -11 -16 -7 -27 4 -11 10 -59 13 -107 5 -84 4 -89
-16 -94 -40 -10 -21 -23 34 -23 41 0 55 4 55 14 0 8 -4 18 -10 21 -5 3 -10 44
-10 91 0 49 -4 84 -10 84 -5 0 -10 11 -10 25 0 26 -14 31 -39 16z"/>
<path d="M4040 916 c0 -7 -8 -16 -17 -18 -16 -4 -18 -18 -18 -99 l0 -94 34 0
c39 0 53 20 22 30 -21 6 -30 35 -11 35 6 0 10 18 10 40 0 27 5 43 15 46 17 7
21 34 5 34 -5 0 -10 9 -10 20 0 11 -7 20 -15 20 -8 0 -15 -6 -15 -14z"/>
<path d="M4305 729 c-9 -14 3 -59 15 -59 5 0 12 11 16 24 6 26 -1 46 -16 46
-5 0 -12 -5 -15 -11z"/>
</g>
</svg>
